<?xml version="1.0" encoding="UTF-8" standalone="no"?>
<!-- Created with Inkscape (http://www.inkscape.org/) -->

<svg
   width="60"
   height="50"
   viewBox="0 0 15.875004 13.229162"
   version="1.1"
   id="svg5"
   inkscape:version="1.1.2 (0a00cf5339, 2022-02-04, custom)"
   sodipodi:docname="heart.svg"
   xmlns:inkscape="http://www.inkscape.org/namespaces/inkscape"
   xmlns:sodipodi="http://sodipodi.sourceforge.net/DTD/sodipodi-0.dtd"
   xmlns="http://www.w3.org/2000/svg"
   xmlns:svg="http://www.w3.org/2000/svg">
  <sodipodi:namedview
     id="namedview7"
     pagecolor="#505050"
     bordercolor="#eeeeee"
     borderopacity="1"
     inkscape:pageshadow="0"
     inkscape:pageopacity="0"
     inkscape:pagecheckerboard="0"
     inkscape:document-units="mm"
     showgrid="false"
     inkscape:zoom="8.3755251"
     inkscape:cx="34.923184"
     inkscape:cy="30.804039"
     inkscape:window-width="1920"
     inkscape:window-height="1017"
     inkscape:window-x="-8"
     inkscape:window-y="-8"
     inkscape:window-maximized="1"
     inkscape:current-layer="layer1"
     units="px"
     width="52.38583px" />
  <defs
     id="defs2" />
  <g
     inkscape:label="Layer 1"
     inkscape:groupmode="layer"
     id="layer1">
    <path
       id="rect341"
       style="fill:#ff5555;fill-rule:evenodd;stroke-width:0.0357387"
       d="M 5.1798019,1.4212676 C 4.7077978,1.4207449 4.2357378,1.6026053 3.8737331,1.9665949 L 1.8999326,3.9513167 C 1.1759262,4.679295 1.1747145,5.8526502 1.8973816,6.5819565 L 4.523204,9.2314894 c 0.038225,0.046687 0.078755,0.092149 0.12219,0.1358208 l 1.9738021,1.9847248 c 0.316753,0.31849 0.7180951,0.497177 1.1296243,0.536646 2.6e-4,3.3e-5 7.79e-4,-3.2e-5 0.00108,0 0.058456,0.0055 0.1167613,0.0087 0.175426,0.0087 5.191e-4,0 0.00108,-3e-6 0.00157,0 0.058495,5.2e-5 0.1171352,-0.0032 0.1754261,-0.0087 5.2e-4,-4.8e-5 0.00108,4.9e-5 0.00157,0 0.4115292,-0.03946 0.8123663,-0.218156 1.1291183,-0.536646 L 11.207317,9.3673102 c 0.04379,-0.044019 0.08471,-0.089757 0.123204,-0.1368434 L 13.954823,6.5819565 C 14.677508,5.8526502 14.676801,4.679295 13.952723,3.9513167 L 11.978453,1.9665949 C 11.254447,1.2386167 10.090019,1.23984 9.3673328,1.9691649 L 7.926403,3.4233677 6.485472,1.969164 C 6.12413,1.6045103 5.6519159,1.4217181 5.1799147,1.4212843 Z" />
  </g>
</svg>
